<?xml version="1.0" standalone="no"?>
<!DOCTYPE svg PUBLIC "-//W3C//DTD SVG 20010904//EN"
 "http://www.w3.org/TR/2001/REC-SVG-20010904/DTD/svg10.dtd">
<svg version="1.0" xmlns="http://www.w3.org/2000/svg"
 width="678.000000pt" height="555.000000pt" viewBox="0 0 678.000000 555.000000"
 preserveAspectRatio="xMidYMid meet">

<g transform="translate(0.000000,555.000000) scale(0.100000,-0.100000)"
fill="#000000" stroke="none">
<path d="M0 2775 l0 -2775 3390 0 3390 0 0 2775 0 2775 -3390 0 -3390 0 0
-2775z m1127 2074 c43 -85 116 -255 154 -357 29 -76 39 -118 40 -165 l1 -62
19 60 c36 110 80 288 86 347 5 47 9 58 24 58 11 0 21 -9 24 -22 19 -86 25
-126 31 -210 6 -84 -5 -222 -23 -276 -4 -15 -3 -15 6 -2 22 31 91 220 99 272
6 43 11 53 27 53 31 0 48 -72 47 -205 0 -176 -48 -327 -157 -490 -33 -49 -45
-78 -43 -97 3 -23 13 -10 70 88 91 157 162 303 183 383 29 108 62 82 72 -57
13 -202 -67 -428 -222 -622 -30 -38 -53 -75 -50 -83 3 -7 5 -18 5 -23 0 -14
179 252 235 349 26 45 58 113 71 150 62 178 100 -37 44 -253 -38 -147 -136
-317 -254 -442 -62 -67 -66 -73 -66 -118 l0 -48 24 35 c13 20 61 80 106 134
103 125 231 315 255 380 24 63 30 70 51 53 14 -12 16 -27 11 -109 -7 -121 -36
-220 -98 -340 -65 -126 -128 -208 -249 -323 -55 -52 -100 -102 -100 -111 0 -9
2 -16 4 -16 2 0 35 33 73 73 208 216 329 365 377 463 26 53 51 69 62 39 10
-24 -15 -178 -40 -251 -42 -124 -98 -223 -194 -343 l-45 -56 67 65 c82 79 179
198 206 251 21 40 46 51 57 23 10 -27 -26 -185 -62 -266 -49 -114 -134 -237
-238 -346 -65 -68 -79 -86 -47 -62 76 58 270 252 303 303 55 85 84 55 53 -58
-38 -142 -131 -302 -253 -436 -73 -79 -69 -78 47 17 77 63 142 130 171 173 23
37 53 22 44 -21 -39 -182 -206 -423 -394 -570 -83 -65 -92 -74 -61 -58 69 35
242 163 317 233 64 61 87 77 96 68 28 -28 -74 -226 -188 -362 -51 -61 -142
-143 -261 -237 -21 -17 -12 -14 31 9 93 50 217 134 273 184 89 80 106 54 42
-64 -172 -315 -550 -575 -982 -676 -77 -18 -78 -19 -114 -74 -69 -106 -159
-220 -182 -230 -34 -16 -60 -13 -82 9 -35 35 -25 61 80 201 55 74 103 143 106
155 3 11 -10 72 -30 135 -43 143 -100 374 -123 499 -22 124 -25 418 -4 444 20
24 31 16 50 -39 19 -52 144 -325 148 -321 1 1 -9 38 -23 81 -60 187 -99 442
-80 519 9 37 39 34 54 -7 13 -34 202 -367 202 -355 0 4 -17 47 -39 95 -78 178
-122 326 -136 460 -12 107 17 138 56 61 23 -46 169 -257 169 -245 0 4 -19 47
-43 95 -77 154 -127 310 -127 393 0 46 18 60 39 30 34 -47 233 -297 248 -311
18 -16 20 -21 -75 130 -68 108 -112 195 -146 289 -49 137 -32 220 27 134 33
-48 175 -197 155 -163 -9 14 -37 58 -63 98 -93 144 -158 316 -127 336 5 3 121
-104 258 -239 137 -134 250 -245 252 -245 1 0 2 5 2 12 0 6 -69 81 -153 167
-84 86 -183 197 -220 246 -71 95 -157 255 -157 293 0 27 31 30 51 5 8 -9 93
-82 189 -162 96 -80 201 -169 233 -199 54 -52 57 -54 57 -29 0 20 -22 43 -107
114 -133 109 -271 246 -341 338 -62 83 -117 188 -109 210 9 21 31 19 53 -6 10
-12 94 -75 185 -141 92 -66 195 -142 229 -169 54 -44 61 -47 58 -27 -2 15 -31
42 -89 83 -197 138 -351 281 -427 394 -47 71 -60 107 -43 124 8 8 17 5 33 -10
13 -12 86 -61 163 -109 77 -48 179 -114 228 -146 80 -54 99 -61 79 -32 -4 6
-48 37 -99 68 -193 119 -346 247 -429 360 -44 58 -54 89 -33 101 5 4 18 0 27
-8 19 -16 120 -74 237 -136 79 -42 79 -42 40 -10 -128 106 -335 331 -335 365
0 32 21 21 318 -167 51 -33 94 -59 96 -59 1 0 -15 35 -36 78 -41 82 -62 155
-78 267 -11 80 -13 258 -3 269 13 13 28 0 50 -45z m4359 -1801 c71 -26 137
-86 173 -159 57 -114 50 -230 -19 -337 -118 -183 -366 -208 -521 -53 -76 77
-102 146 -97 256 5 95 36 162 104 225 104 96 225 119 360 68z m-2763 -150 c62
-131 78 -172 71 -188 -7 -16 -24 11 -91 153 l-83 172 -55 3 c-30 2 -55 -1 -55
-5 1 -19 266 -553 275 -554 6 -1 74 131 153 292 l143 294 54 3 c30 2 55 1 55
-1 0 -3 -72 -153 -160 -333 -146 -302 -179 -359 -195 -343 -3 4 64 149 150
324 85 175 155 319 155 321 0 2 -8 4 -18 4 -13 0 -55 -78 -173 -321 -85 -177
-158 -322 -162 -323 -8 -1 -308 610 -322 655 -6 19 -2 20 86 17 l92 -3 80
-167z m317 165 c0 -9 -240 -506 -249 -516 -4 -4 -56 93 -115 215 -130 269
-122 248 -101 248 12 0 45 -59 115 -202 l98 -202 15 35 c67 155 209 429 222
429 8 0 15 -3 15 -7z m240 -313 l0 -320 191 0 190 0 -3 48 -3 47 -137 3 -138
3 0 44 c0 33 4 45 15 45 10 0 15 -10 15 -30 l0 -30 140 0 140 0 0 -85 0 -85
-220 0 -220 0 0 340 c0 296 2 340 15 340 13 0 15 -42 15 -320z m400 240 l0
-80 -115 0 c-96 0 -115 3 -115 15 0 12 18 15 100 15 l100 0 0 50 0 50 -150 0
-150 0 0 -140 0 -140 110 0 c104 0 110 -1 110 -20 0 -20 -5 -20 -127 -18
l-128 3 -3 173 -2 172 185 0 185 0 0 -80z m362 -117 l198 -198 0 168 c0 143 2
167 15 167 9 0 18 -6 21 -13 2 -7 3 -101 2 -210 l-3 -197 -240 240 c-198 198
-235 240 -215 240 19 0 72 -47 222 -197z m298 -143 l0 -340 -27 0 c-23 0 -66
38 -230 202 l-203 203 0 -183 c0 -155 2 -182 15 -182 13 0 15 22 15 141 0 125
2 140 15 129 12 -10 15 -41 15 -162 l0 -149 -47 3 -48 3 -2 245 -2 245 222
-228 c122 -125 228 -227 235 -227 9 0 12 68 12 305 l0 305 -50 0 -50 0 0 -147
c-1 -132 -2 -146 -15 -129 -12 15 -15 53 -15 163 l0 143 80 0 80 0 0 -340z
m465 315 c55 -27 132 -106 158 -163 18 -38 22 -65 22 -147 0 -118 -21 -171
-95 -245 -81 -81 -110 -90 -308 -90 l-172 0 0 305 0 305 157 0 c140 0 161 -2
201 -21 176 -86 212 -320 70 -456 -56 -53 -111 -73 -210 -73 l-88 0 0 210 c0
179 2 210 15 210 12 0 15 -31 17 -192 l3 -193 40 -3 c74 -7 140 15 194 64 57
51 83 108 84 179 0 102 -75 211 -162 235 -20 5 -93 10 -163 10 l-128 0 0 -276
0 -276 158 4 c174 4 189 8 263 75 124 112 131 308 17 437 -72 82 -97 90 -295
94 -145 3 -173 6 -173 18 0 13 26 15 178 12 152 -3 183 -6 217 -23z m975 -295
l0 -320 55 0 55 0 0 125 0 125 43 0 42 0 65 -123 65 -122 59 -3 58 -3 -51 96
c-55 102 -60 118 -36 113 9 -2 45 -58 81 -126 l65 -123 -96 3 -97 3 -66 125
c-41 76 -74 126 -85 128 -15 3 -17 -8 -17 -127 l0 -131 -85 0 -85 0 0 340 c0
296 2 340 15 340 13 0 15 -42 15 -320z m321 309 c50 -15 108 -64 125 -105 21
-51 18 -150 -7 -201 -21 -43 -86 -93 -122 -93 -31 0 -27 -19 23 -111 27 -50
50 -94 50 -96 0 -1 -8 -3 -17 -3 -12 0 -36 34 -75 106 -32 57 -58 109 -58 113
0 5 17 11 38 15 80 12 142 76 150 154 6 65 -11 114 -53 151 -46 40 -91 51
-207 51 l-98 0 0 -295 c0 -256 -2 -295 -15 -295 -13 0 -15 41 -15 310 l0 310
121 0 c67 0 139 -5 160 -11z m-2063 -282 c210 -210 266 -276 235 -277 -5 -1
-110 104 -235 232 l-227 233 -1 -287 c0 -249 -2 -288 -15 -288 -13 0 -15 42
-15 322 0 177 3 318 8 314 4 -4 116 -116 250 -249z m-428 218 c0 -11 -20 -15
-97 -17 l-98 -3 -3 -77 -3 -78 116 0 115 0 0 -80 0 -80 -145 0 -145 0 0 -85 0
-85 135 0 c113 0 135 -2 135 -15 0 -13 -24 -15 -155 -15 l-155 0 0 115 0 115
150 0 150 0 0 50 0 50 -115 0 -115 0 0 110 0 110 115 0 c94 0 115 -3 115 -15z
m2441 5 c96 -18 147 -103 117 -194 -23 -68 -82 -95 -210 -96 -54 0 -68 3 -68
15 0 12 14 15 63 15 130 0 187 36 187 118 0 41 -5 53 -31 78 -27 26 -38 29
-110 33 -64 2 -79 0 -79 -12 0 -11 18 -16 72 -19 62 -5 75 -9 95 -32 29 -34
29 -58 -1 -93 -23 -26 -30 -28 -115 -31 l-91 -4 0 46 c0 39 3 46 20 46 16 0
20 -7 20 -30 0 -30 1 -30 53 -30 62 0 100 21 95 53 -4 31 -44 47 -120 47 l-68
0 0 43 c0 24 3 47 7 50 10 10 103 8 164 -3z m-1292 -81 c20 -11 50 -39 66 -62
27 -38 30 -49 30 -119 0 -69 -3 -80 -30 -120 -41 -58 -96 -88 -162 -88 -41 0
-53 4 -53 15 0 11 12 15 45 15 140 0 221 160 142 279 -37 56 -77 71 -191 71
l-96 0 0 -225 c0 -182 -3 -225 -13 -225 -17 0 -27 127 -27 338 l0 142 126 0
c109 0 131 -3 163 -21z"/>
<path d="M1122 4668 c13 -140 67 -298 127 -374 l20 -25 6 35 c4 21 1 56 -9 90
-19 65 -130 334 -143 347 -5 5 -6 -26 -1 -73z"/>
<path d="M1442 4500 c-7 -25 -28 -98 -47 -162 -35 -117 -47 -238 -25 -238 16
0 58 97 75 175 10 45 15 106 13 170 l-3 100 -13 -45z"/>
<path d="M1587 4326 c-15 -41 -55 -131 -89 -198 -55 -110 -61 -131 -66 -199
-2 -43 0 -79 5 -82 12 -8 93 128 126 213 34 87 59 214 55 284 l-3 58 -28 -76z"/>
<path d="M1020 4296 c80 -83 244 -205 257 -193 3 4 -10 28 -29 54 -33 46 -166
146 -271 203 -38 21 -34 15 43 -64z"/>
<path d="M970 4125 c58 -60 217 -184 320 -248 55 -34 60 -35 60 -17 0 12 -7
34 -14 49 -29 55 -88 95 -341 231 l-80 43 55 -58z"/>
<path d="M1711 4077 c-13 -32 -62 -125 -108 -205 -95 -167 -106 -195 -101
-272 l3 -55 48 60 c101 128 193 366 185 483 l-3 47 -24 -58z"/>
<path d="M1270 4040 c8 -5 20 -10 25 -10 6 0 3 5 -5 10 -8 5 -19 10 -25 10 -5
0 -3 -5 5 -10z"/>
<path d="M999 3902 c24 -30 80 -86 123 -125 81 -73 266 -217 280 -217 12 0 9
38 -6 73 -7 18 -29 46 -47 64 -33 31 -246 172 -344 229 l-50 28 44 -52z"/>
<path d="M1810 3792 c-19 -37 -81 -136 -138 -221 -105 -157 -132 -220 -132
-301 l1 -35 54 58 c135 142 227 332 251 515 4 28 5 52 3 52 -2 0 -20 -30 -39
-68z"/>
<path d="M1014 3675 c60 -95 181 -223 341 -359 85 -72 90 -75 93 -52 6 43 -18
105 -52 140 -34 33 -198 158 -331 252 -65 46 -69 47 -51 19z"/>
<path d="M1880 3437 c-36 -55 -113 -158 -171 -229 -108 -133 -128 -171 -145
-277 l-7 -45 48 39 c103 85 229 258 284 389 30 71 65 201 59 215 -2 4 -32 -38
-68 -92z"/>
<path d="M1020 3425 c0 -13 88 -141 148 -215 33 -41 113 -127 176 -190 l116
-115 0 52 c0 70 -13 99 -68 157 -69 71 -372 325 -372 311z"/>
<path d="M1936 3129 c-38 -49 -126 -150 -197 -224 -70 -74 -136 -149 -145
-166 -22 -44 -54 -138 -54 -161 0 -19 1 -19 28 0 164 119 333 325 394 484 22
56 49 150 45 155 -2 1 -33 -38 -71 -88z"/>
<path d="M1020 3153 c0 -16 94 -172 157 -261 59 -82 237 -294 253 -300 14 -5
19 97 7 134 -19 52 -94 139 -252 288 -143 135 -165 154 -165 139z"/>
<path d="M1004 2895 c26 -79 106 -225 195 -357 83 -123 191 -268 191 -257 0 3
5 32 11 64 17 93 3 126 -117 268 -57 67 -146 167 -198 222 -91 95 -95 98 -82
60z"/>
<path d="M2010 2867 c-59 -73 -150 -165 -296 -297 -119 -109 -145 -137 -172
-193 -18 -35 -35 -79 -39 -97 -5 -30 -4 -33 12 -26 41 15 179 123 256 199 90
89 164 189 214 287 34 67 68 160 62 166 -2 2 -19 -15 -37 -39z"/>
<path d="M1490 2666 c0 -126 -67 -479 -133 -707 -126 -430 -373 -911 -644
-1251 -56 -71 -65 -98 -34 -98 12 0 42 31 84 87 380 515 613 1072 707 1693 22
142 36 310 26 310 -3 0 -6 -16 -6 -34z"/>
<path d="M950 2661 c0 -22 56 -174 97 -261 41 -88 201 -365 242 -419 l19 -24
16 55 c30 104 21 141 -70 272 -92 132 -304 395 -304 377z"/>
<path d="M2004 2519 c-72 -75 -233 -212 -362 -309 -83 -62 -124 -101 -152
-142 -41 -62 -77 -145 -67 -155 10 -9 187 100 269 166 91 73 190 176 251 262
46 65 124 216 115 224 -2 3 -26 -18 -54 -46z"/>
<path d="M1566 2517 c-21 -18 -37 -37 -35 -43 2 -5 21 10 43 33 46 51 44 54
-8 10z"/>
<path d="M895 2365 c19 -132 157 -472 278 -683 l24 -43 28 75 c35 97 30 132
-37 251 -47 83 -267 417 -290 440 -7 7 -8 -6 -3 -40z"/>
<path d="M1328 2265 c10 -16 24 -39 30 -50 8 -14 11 -15 11 -5 0 8 -13 31 -30
50 -27 31 -29 31 -11 5z"/>
<path d="M1533 2207 c-29 -18 -53 -39 -53 -49 0 -13 7 -10 33 12 17 16 43 38
57 49 35 28 24 25 -37 -12z"/>
<path d="M1979 2184 c-103 -90 -207 -167 -378 -279 -119 -78 -172 -119 -202
-158 -40 -49 -96 -154 -87 -162 8 -9 200 91 293 153 108 71 251 202 321 294
40 52 131 208 122 208 -3 0 -33 -25 -69 -56z"/>
<path d="M800 2112 c0 -55 33 -208 76 -351 35 -115 150 -419 164 -435 5 -5 25
24 45 65 54 106 49 137 -47 332 -42 83 -112 215 -157 292 -80 139 -81 140 -81
97z"/>
<path d="M680 1850 c0 -77 21 -235 51 -375 31 -149 120 -475 129 -475 3 0 27
37 54 81 47 78 48 83 44 142 -4 41 -23 108 -56 194 -54 141 -199 460 -213 469
-5 3 -9 -13 -9 -36z"/>
<path d="M1950 1849 c-62 -54 -281 -194 -420 -269 -187 -101 -230 -130 -282
-192 -42 -49 -94 -136 -86 -143 6 -6 180 65 272 111 189 96 365 238 476 385
63 84 96 139 83 139 -5 -1 -24 -15 -43 -31z"/>
<path d="M1399 1833 c-13 -16 -12 -17 4 -4 9 7 17 15 17 17 0 8 -8 3 -21 -13z"/>
<path d="M1141 1625 c0 -5 6 -21 14 -35 8 -14 14 -20 14 -15 0 6 -6 21 -14 35
-8 14 -14 21 -14 15z"/>
<path d="M1320 1533 c-32 -14 -53 -33 -46 -41 2 -2 21 9 42 23 59 40 60 42 4
18z"/>
<path d="M1837 1475 c-114 -77 -281 -165 -483 -256 -103 -46 -201 -97 -232
-122 -51 -39 -115 -113 -141 -164 l-11 -22 67 19 c290 80 536 215 718 395 77
75 173 192 164 199 -2 2 -39 -21 -82 -49z"/>
<path d="M1130 1180 c-8 -5 -12 -11 -10 -14 3 -2 14 2 24 10 22 15 10 19 -14
4z"/>
<path d="M5222 3010 c-113 -57 -167 -145 -167 -275 0 -98 23 -155 90 -219 153
-149 410 -96 498 103 29 65 28 169 -3 239 -28 66 -111 144 -176 166 -26 9 -78
16 -114 16 -54 0 -78 -6 -128 -30z m227 -16 c72 -21 141 -90 166 -163 37 -111
-3 -250 -89 -313 -117 -84 -261 -73 -363 28 -80 80 -103 181 -63 286 31 81 82
132 162 159 66 23 119 24 187 3z"/>
<path d="M5305 2971 c-110 -28 -186 -124 -186 -236 0 -213 256 -321 405 -171
122 121 86 327 -69 392 -41 17 -114 24 -150 15z m131 -42 c38 -12 93 -64 110
-106 18 -42 18 -135 0 -176 -53 -127 -228 -160 -334 -63 -64 57 -82 175 -39
250 55 96 148 130 263 95z"/>
<path d="M5285 2896 c-71 -31 -114 -114 -101 -194 20 -125 186 -184 282 -100
47 41 64 77 64 134 0 125 -130 210 -245 160z"/>
</g>
</svg>
